<svg width="67" height="23" viewBox="0 0 67 23" fill="none" xmlns="http://www.w3.org/2000/svg">
  <path d="M1.22266 9.23052C1.22266 9.0635 1.31152 8.90909 1.45594 8.82518L4.52074 7.04445C4.677 6.95366 4.87289 7.0664 4.87289 7.24712V20.1429C4.87289 20.2325 4.80026 20.3052 4.71066 20.3052H1.38489C1.29529 20.3052 1.22266 20.2325 1.22266 20.1429V9.23052Z" fill="url(#paint0_linear)"/>
  <path d="M1.22266 8.69978C1.22266 8.64185 1.25355 8.58832 1.3037 8.55933L4.62947 6.63681C4.73762 6.57429 4.87289 6.65234 4.87289 6.77726L4.87289 13.41C4.87289 13.5444 4.76394 13.6534 4.62954 13.6534H1.46601C1.33161 13.6534 1.22266 13.5444 1.22266 13.41V8.69978Z" fill="url(#paint1_linear)"/>
  <path d="M10.4456 6.44008L1.54846 11.5486C1.34693 11.6643 1.22266 11.8789 1.22266 12.1113V15.9043L10.8502 10.3457C11.0509 10.2298 11.1746 10.0156 11.1746 9.78376V6.86215C11.1746 6.48801 10.77 6.25378 10.4456 6.44008Z" fill="url(#paint2_linear)"/>
  <path fill-rule="evenodd" clip-rule="evenodd" d="M1.61523 15.6775C1.38174 15.8033 1.22305 16.0501 1.22305 16.3339C1.22305 16.3357 1.22306 16.3376 1.22307 16.3394L1.22305 16.3394V15.4551L1.61523 15.6775Z" fill="#6501E5"/>
  <path fill-rule="evenodd" clip-rule="evenodd" d="M10.8282 10.3607C10.8605 10.2836 10.8784 10.1989 10.8784 10.11C10.8784 9.97192 10.8352 9.84391 10.7617 9.73871L11.1766 9.50391V9.78483C11.1766 10.0165 11.0531 10.2306 10.8525 10.3466L10.8282 10.3607Z" fill="#9327FE"/>
  <path d="M10.7672 9.7484C10.656 9.4064 4.95061 5.57376 1.02363 2.91872C0.891136 2.82914 0.9553 2.62274 1.11523 2.62274L5.79227 2.62271C5.82518 2.62271 5.85731 2.63271 5.8844 2.6514L10.8964 6.10918C11.072 6.23032 11.1768 6.43001 11.1768 6.64333L11.1768 9.51035L10.7672 9.7484Z" fill="#9327FE"/>
  <path d="M13.5151 13.2919C13.3789 13.2507 13.1746 13.2232 12.9703 13.2232C12.4254 13.2232 11.5673 13.4429 11.2132 14.2116V13.2919H9.21094V20.1147H11.2813V17.1357C11.2813 15.7766 12.0304 15.2824 12.8613 15.2824C13.0656 15.2824 13.2835 15.2962 13.5151 15.3511V13.2919Z" fill="#0556F3"/>
  <path d="M17.7967 18.3987C17.0203 18.3987 16.2712 17.8358 16.2712 16.6964C16.2712 15.5433 17.0203 15.0079 17.7967 15.0079C18.5867 15.0079 19.3222 15.5433 19.3222 16.6964C19.3222 17.8496 18.5867 18.3987 17.7967 18.3987ZM17.7967 13.0859C15.7808 13.0859 14.2008 14.5823 14.2008 16.6964C14.2008 18.8105 15.7808 20.3206 17.7967 20.3206C19.8262 20.3206 21.3926 18.8105 21.3926 16.6964C21.3926 14.5823 19.8262 13.0859 17.7967 13.0859Z" fill="#0556F3"/>
  <path d="M22.2485 20.4991C22.4392 21.7209 23.6787 22.9289 25.6265 22.9289C28.1599 22.9289 29.2496 21.2267 29.2496 19.2636V13.2919H27.2746V14.0194C27.0839 13.6625 26.4982 13.1683 25.3949 13.1683C23.5425 13.1683 22.2485 14.7058 22.2485 16.5042C22.2485 18.3987 23.597 19.8264 25.3949 19.8264C26.3756 19.8264 26.9613 19.4283 27.2065 19.0576V19.3734C27.2065 20.6089 26.5663 21.1168 25.5311 21.1168C24.7547 21.1168 24.2099 20.6364 24.0737 19.9774L22.2485 20.4991ZM25.7763 18.0143C24.9454 18.0143 24.3189 17.4377 24.3189 16.5042C24.3189 15.5707 24.9999 14.9941 25.7763 14.9941C26.5527 14.9941 27.2201 15.5707 27.2201 16.5042C27.2201 17.4377 26.6208 18.0143 25.7763 18.0143Z" fill="#0556F3"/>
  <path d="M35.3029 13.2919C35.1667 13.2507 34.9624 13.2232 34.7581 13.2232C34.2133 13.2232 33.3552 13.4429 33.001 14.2116V13.2919H30.9988V20.1147H33.0691V17.1357C33.0691 15.7766 33.8183 15.2824 34.6491 15.2824C34.8534 15.2824 35.0714 15.2962 35.3029 15.3511V13.2919Z" fill="#0556F3"/>
  <path d="M36.2034 18.234C36.2034 19.3185 37.0615 20.3069 38.5462 20.3069C39.4451 20.3069 40.0989 19.9225 40.4531 19.3459C40.4531 19.8127 40.5075 20.0598 40.5212 20.1147H42.3872C42.3736 20.0461 42.3055 19.593 42.3055 19.0576V15.7217C42.3055 14.3215 41.5019 13.0859 39.3089 13.0859C37.3203 13.0859 36.4213 14.3764 36.3396 15.3511L38.1375 15.7217C38.1784 15.2138 38.5734 14.7196 39.2953 14.7196C39.9491 14.7196 40.2896 15.0628 40.2896 15.4609C40.2896 15.6943 40.167 15.8727 39.7993 15.9276L38.2056 16.1747C37.0887 16.3395 36.2034 17.0259 36.2034 18.234ZM39.0501 18.7968C38.4781 18.7968 38.2465 18.4536 38.2465 18.0967C38.2465 17.6162 38.5734 17.4103 39.0093 17.3416L40.2896 17.1357V17.4377C40.2896 18.4948 39.6631 18.7968 39.0501 18.7968Z" fill="#0556F3"/>
  <path d="M46.1179 20.1147V16.1885C46.1179 15.5707 46.5129 15.0079 47.2348 15.0079C47.9839 15.0079 48.3245 15.5158 48.3245 16.161V20.1147H50.3676V16.1747C50.3676 15.5707 50.7626 15.0079 51.4981 15.0079C52.2336 15.0079 52.5741 15.5158 52.5741 16.161V20.1147H54.5764V15.6943C54.5764 13.841 53.3505 13.0859 52.0702 13.0859C51.1576 13.0859 50.5038 13.388 49.9726 14.1567C49.632 13.4841 48.9374 13.0859 47.9703 13.0859C47.2348 13.0859 46.3631 13.4703 46.0226 14.0744V13.2919H44.0475V20.1147H46.1179Z" fill="#0556F3"/>
  <path d="M66.8048 20.1147V18.3163H63.6312L66.7503 15.0079V13.2919H61.2067V15.0765H64.1079L61.125 18.2751V20.1147H66.8048Z" fill="#0556F3"/>
  <path d="M58.8258 20.1006H56.4453L57.1456 15.6276H56.4453V13.1348H59.5219V15.6276L58.8258 20.1006Z" fill="#065AFF"/>
  <path d="M59.5219 8.63086H56.4453V11.5804H59.5219V8.63086Z" fill="#065AFF"/>
  <defs>
  <linearGradient id="paint0_linear" x1="3.04777" y1="18.906" x2="3.04777" y2="12.7476" gradientUnits="userSpaceOnUse">
  <stop stop-color="#00A3FF"/>
  <stop offset="1" stop-color="#0597EA"/>
  </linearGradient>
  <linearGradient id="paint1_linear" x1="3.04777" y1="12.9454" x2="3.04777" y2="9.82901" gradientUnits="userSpaceOnUse">
  <stop stop-color="#00A3FF"/>
  <stop offset="1" stop-color="#0597EA"/>
  </linearGradient>
  <linearGradient id="paint2_linear" x1="4.36325" y1="11.8282" x2="11.8543" y2="7.6255" gradientUnits="userSpaceOnUse">
  <stop stop-color="#6501E5"/>
  <stop offset="1" stop-color="#5F01D8"/>
  </linearGradient>
  </defs>
</svg>
