<svg xmlns="http://www.w3.org/2000/svg" width="247.808" height="185.85" viewBox="0 0 232.32 174.235"><path d="m276.515 367.463 15.556 5.662 15.785-5.745-15.555-5.662zm15.624-12.783 15.555 5.662 15.786-5.745-15.556-5.662z" style="fill:#f7f7f4;fill-opacity:1;stroke:#ccc;stroke-width:.35507631;stroke-linejoin:bevel;stroke-miterlimit:4;stroke-dasharray:none" transform="translate(-260.714 -252.848)"/><path d="m292.139 354.68 15.555 5.662v18.283l-15.555-5.662z" style="fill:#efeeea;fill-opacity:1;stroke:#ccc;stroke-width:.35507631;stroke-linejoin:bevel;stroke-miterlimit:4;stroke-dasharray:none" transform="translate(-260.714 -252.848)"/><path d="m260.892 391.609 15.555 5.661 15.786-5.745-15.555-5.662z" style="fill:#f7f7f4;fill-opacity:1;stroke:#ccc;stroke-width:.35507631;stroke-linejoin:bevel;stroke-miterlimit:4;stroke-dasharray:none" transform="translate(-260.714 -252.848)"/><path d="m260.892 391.609 15.555 5.661v18.283l-15.555-5.662z" style="fill:#efeeea;fill-opacity:1;stroke:#ccc;stroke-width:.35507631;stroke-linejoin:bevel;stroke-miterlimit:4;stroke-dasharray:none" transform="translate(-260.714 -252.848)"/><path d="m260.892 365.609 15.555 5.661 15.786-5.745-15.555-5.662z" style="fill:#f7f7f4;fill-opacity:1;stroke:#ccc;stroke-width:.35507631;stroke-linejoin:bevel;stroke-miterlimit:4;stroke-dasharray:none" transform="translate(-260.714 -252.848)"/><path d="M276.447 371.27v18.283l15.786-5.746v-18.282z" style="fill:#fff;fill-opacity:1;stroke:#ccc;stroke-width:.35507631;stroke-linejoin:bevel;stroke-miterlimit:4;stroke-dasharray:none" transform="translate(-260.714 -252.848)"/><path d="m260.892 365.609 15.555 5.661v18.283l-15.555-5.662z" style="fill:#efeeea;fill-opacity:1;stroke:#ccc;stroke-width:.35507631;stroke-linejoin:bevel;stroke-miterlimit:4;stroke-dasharray:none" transform="translate(-260.714 -252.848)"/><path d="m276.7 350.057-.025.03a2.783 2.783 0 0 0-2.758 2.782 3 3 0 0 0 .053.531l-11.746 14.385 7.646 9.363-3.869-9.363 9.984-12.228a2.8 2.8 0 0 0 .715.095 2.8 2.8 0 0 0 .715-.093l5.315 6.507 5.373 1.955-8.672-10.62a3 3 0 0 0 .05-.532 2.783 2.783 0 0 0-2.755-2.781zm2.135-7.289a2.136 2.136 0 1 0-4.271 0v3.265a2.136 2.136 0 0 0 4.271 0zm-.98-.002v3.265a1.155 1.155 0 0 1-2.31 0v-3.265a1.154 1.154 0 1 1 2.31 0m.98-11.211a2.136 2.136 0 1 0-4.271 0v3.265a2.136 2.136 0 0 0 4.271 0zm-.98-.002v3.265a1.155 1.155 0 0 1-2.31 0v-3.265a1.154 1.154 0 1 1 2.31 0" style="fill:#646464;fill-opacity:1" transform="translate(-260.714 -252.848)"/><path d="M277.22 335.545v6.498a.518.518 0 1 1-1.04 0v-6.498a.518.518 0 1 1 1.04 0m0 11.213v6.497a.518.518 0 1 1-1.04 0v-6.497a.518.518 0 1 1 1.04 0m0-22.463v6.498a.518.518 0 1 1-1.04 0v-6.498a.518.518 0 1 1 1.04 0" style="fill:#646464;fill-opacity:1" transform="translate(-260.714 -252.848)"/><path d="m276.515 397.29 15.556 5.661v18.283l-15.556-5.662z" style="fill:#efeeea;fill-opacity:1;stroke:#ccc;stroke-width:.35507631;stroke-linejoin:bevel;stroke-miterlimit:4;stroke-dasharray:none" transform="translate(-260.714 -252.848)"/><path d="m276.515 378.826 15.556 5.661 15.785-5.745-15.555-5.662z" style="fill:#f7f7f4;fill-opacity:1;stroke:#ccc;stroke-width:.35507631;stroke-linejoin:bevel;stroke-miterlimit:4;stroke-dasharray:none" transform="translate(-260.714 -252.848)"/><path d="m276.515 378.826 15.556 5.661v18.283l-15.556-5.661z" style="fill:#efeeea;fill-opacity:1;stroke:#ccc;stroke-width:.35507631;stroke-linejoin:bevel;stroke-miterlimit:4;stroke-dasharray:none" transform="translate(-260.714 -252.848)"/><path d="M354.564 391.589v18.283l15.786-5.746v-18.282z" style="fill:#fff;fill-opacity:1;stroke:#ccc;stroke-width:.35507631;stroke-linejoin:bevel;stroke-miterlimit:4;stroke-dasharray:none" transform="translate(-260.714 -252.848)"/><path d="M338.94 397.27v18.283l15.787-5.746v-18.282z" style="fill:#ffd242;fill-opacity:1;stroke:#ccc;stroke-width:.35507631;stroke-linejoin:bevel;stroke-miterlimit:4;stroke-dasharray:none" transform="translate(-260.714 -252.848)"/><path d="M351.866 401.728a2.617 3.737 35 0 1-3.032 4.33 2.617 3.737 35 0 1-3.032-2.123 2.617 3.737 35 0 1 3.032-4.33 2.617 3.737 35 0 1 3.032 2.123" style="fill:#fff;fill-opacity:1" transform="translate(-260.714 -252.848)"/><path d="M323.318 402.952v18.282l15.785-5.745v-18.283z" style="fill:#ffd242;fill-opacity:1;stroke:#ccc;stroke-width:.35507631;stroke-linejoin:bevel;stroke-miterlimit:4;stroke-dasharray:none" transform="translate(-260.714 -252.848)"/><path d="M307.694 408.633v18.282l15.786-5.745v-18.283z" style="fill:#fff;fill-opacity:1;stroke:#ccc;stroke-width:.35507631;stroke-linejoin:bevel;stroke-miterlimit:4;stroke-dasharray:none" transform="translate(-260.714 -252.848)"/><path d="m292.139 402.971 15.555 5.662v18.282l-15.555-5.661z" style="fill:#efeeea;fill-opacity:1;stroke:#ccc;stroke-width:.35507631;stroke-linejoin:bevel;stroke-miterlimit:4;stroke-dasharray:none" transform="translate(-260.714 -252.848)"/><path d="M354.564 373.125v18.283l15.786-5.746V367.38z" style="fill:#ffd242;fill-opacity:1;stroke:#ccc;stroke-width:.35507631;stroke-linejoin:bevel;stroke-miterlimit:4;stroke-dasharray:none" transform="translate(-260.714 -252.848)"/><path d="m339.009 349 15.555 5.661 15.786-5.745-15.556-5.662z" style="fill:#ffc91d;fill-opacity:1;stroke:#ccc;stroke-width:.35507631;stroke-linejoin:bevel;stroke-miterlimit:4;stroke-dasharray:none" transform="translate(-260.714 -252.848)"/><path d="M354.564 354.661v18.283l15.786-5.746v-18.282zm-15.624 24.145v18.283l15.787-5.745V373.06z" style="fill:#ffd242;fill-opacity:1;stroke:#ccc;stroke-width:.35507631;stroke-linejoin:bevel;stroke-miterlimit:4;stroke-dasharray:none" transform="translate(-260.714 -252.848)"/><path d="M338.94 360.342v18.283l15.787-5.745v-18.283z" style="fill:#3775a9;fill-opacity:1;stroke:#ccc;stroke-width:.35507631;stroke-linejoin:bevel;stroke-miterlimit:4;stroke-dasharray:none" transform="translate(-260.714 -252.848)"/><path d="m323.385 336.217 15.556 5.661 15.785-5.745-15.555-5.662z" style="fill:#2f6491;fill-opacity:1;stroke:#ccc;stroke-width:.35507631;stroke-linejoin:bevel;stroke-miterlimit:4;stroke-dasharray:none" transform="translate(-260.714 -252.848)"/><path d="M338.94 341.878v18.283l15.787-5.745v-18.283z" style="fill:#3775a9;fill-opacity:1;stroke:#ccc;stroke-width:.35507631;stroke-linejoin:bevel;stroke-miterlimit:4;stroke-dasharray:none" transform="translate(-260.714 -252.848)"/><path d="M323.318 384.488v18.282l15.785-5.745v-18.283z" style="fill:#ffd242;fill-opacity:1;stroke:#ccc;stroke-width:.35507631;stroke-linejoin:bevel;stroke-miterlimit:4;stroke-dasharray:none" transform="translate(-260.714 -252.848)"/><path d="M323.318 366.024v18.282l15.785-5.745v-18.283zm-15.624 24.145v18.282l15.786-5.745v-18.283z" style="fill:#3775a9;fill-opacity:1;stroke:#ccc;stroke-width:.35507631;stroke-linejoin:bevel;stroke-miterlimit:4;stroke-dasharray:none" transform="translate(-260.714 -252.848)"/><path d="m292.139 384.507 15.555 5.662v18.282l-15.555-5.661zm0-18.464 15.555 5.662 15.786-5.746-15.556-5.661z" style="fill:#2f6491;fill-opacity:1;stroke:#ccc;stroke-width:.35507631;stroke-linejoin:bevel;stroke-miterlimit:4;stroke-dasharray:none" transform="translate(-260.714 -252.848)"/><path d="M307.694 371.705v18.282l15.786-5.745v-18.283z" style="fill:#3775a9;fill-opacity:1;stroke:#ccc;stroke-width:.35507631;stroke-linejoin:bevel;stroke-miterlimit:4;stroke-dasharray:none" transform="translate(-260.714 -252.848)"/><path d="m292.139 366.043 15.555 5.662v18.282l-15.555-5.661zm15.623-24.145 15.556 5.662 15.785-5.746-15.555-5.662z" style="fill:#2f6491;fill-opacity:1;stroke:#ccc;stroke-width:.35507631;stroke-linejoin:bevel;stroke-miterlimit:4;stroke-dasharray:none" transform="translate(-260.714 -252.848)"/><path d="M323.318 347.56v18.282l15.785-5.745v-18.283z" style="fill:#3775a9;fill-opacity:1;stroke:#ccc;stroke-width:.35507631;stroke-linejoin:bevel;stroke-miterlimit:4;stroke-dasharray:none" transform="translate(-260.714 -252.848)"/><path d="m307.762 341.898 15.556 5.662v18.282l-15.556-5.661z" style="fill:#2f6491;fill-opacity:1;stroke:#ccc;stroke-width:.35507631;stroke-linejoin:bevel;stroke-miterlimit:4;stroke-dasharray:none" transform="translate(-260.714 -252.848)"/><path d="M332.242 353.432a2.617 3.737 35 0 1-3.032 4.33 2.617 3.737 35 0 1-3.031-2.123 2.617 3.737 35 0 1 3.031-4.33 2.617 3.737 35 0 1 3.032 2.123" style="fill:#fff;fill-opacity:1" transform="translate(-260.714 -252.848)"/><path d="M297.375 291.705c0-9.645-2.75-14.596-8.25-14.868a15.5 15.5 0 0 0-6.404 1.053c-1.66.594-2.776 1.181-3.364 1.775v23.022q5.28 3.313 9.368 3.073c5.765-.381 8.65-5.062 8.65-14.055m6.785.4c0 4.9-1.149 8.968-3.46 12.202-2.576 3.66-6.146 5.546-10.71 5.649q-5.161.163-10.633-3.228v20.923l-5.9-2.104v-46.444c.968-1.187 2.214-2.207 3.725-3.073q5.268-3.07 12.801-3.15l.084.084q6.885-.086 10.614 5.649c2.317 3.505 3.48 7.998 3.48 13.492zm36.063 13.732q0 9.858-1.976 13.654c-1.323 2.53-3.84 4.552-7.56 6.056-3.014 1.188-6.275 1.833-9.774 1.943l-.974-3.719q5.336-.726 7.514-1.452c2.86-.969 4.823-2.453 5.9-4.442.866-1.62 1.292-4.713 1.292-9.29v-1.536a30.3 30.3 0 0 1-12.686 2.744c-2.905 0-5.468-.91-7.676-2.744q-3.718-2.993-3.718-7.592V274.9l5.9-2.021v24.72q0 3.96 2.557 6.1c1.704 1.427 3.912 2.111 6.617 2.06 2.705-.059 5.604-1.104 8.683-3.15v-28.84h5.9zm23.034 3.796q-1.055.085-1.943.084-5.009.002-7.799-2.389-2.78-2.392-2.782-6.604v-23.241h-4.042v-3.712h4.042v-9.858l5.894-2.098v11.956h6.63v3.712h-6.63v23.08q0 3.323 1.782 4.7c1.02.755 2.64 1.187 4.848 1.297zm35.727-.484h-5.9v-22.776q-.002-3.479-1.621-5.978-1.867-2.828-5.197-2.828-4.058 0-10.149 4.28v27.302h-5.9v-54.442l5.9-1.86v24.797q5.654-4.116 12.363-4.118 4.687.002 7.592 3.15c1.943 2.098 2.912 4.713 2.912 7.837zm31.362-18.373q-.001-5.557-2.104-9.187c-1.666-2.95-4.255-4.506-7.754-4.668-6.469.375-9.697 5.01-9.697 13.893 0 4.074.672 7.476 2.028 10.207 1.73 3.48 4.325 5.197 7.785 5.139q9.742-.077 9.742-15.384m6.463.038q-.002 7.913-4.042 13.17c-2.963 3.925-7.056 5.894-12.279 5.894-5.177 0-9.212-1.969-12.124-5.894q-3.958-5.257-3.957-13.17c0-4.958 1.426-9.128 4.28-12.524 3.015-3.602 6.979-5.41 11.879-5.41s8.89 1.808 11.962 5.41c2.854 3.396 4.28 7.566 4.28 12.524m33.829 18.335h-5.9v-24.067q0-3.959-2.383-6.185c-1.588-1.479-3.705-2.195-6.346-2.137q-4.203.079-7.999 2.744v29.645h-5.9v-30.375q5.093-3.708 9.374-4.842c2.692-.703 5.067-1.052 7.114-1.052q2.1 0 3.957.407 3.477.802 5.656 2.989 2.428 2.419 2.427 5.816z" style="fill:#646464;fill-opacity:1" transform="translate(-260.714 -252.848)"/><path d="M482.106 267.276h1.014v-6.358h2.401v-.758h-5.817v.758h2.402zm4.314 0h.866v-5.807l1.88 5.806h.964l1.96-5.786v5.787h.944v-7.116h-1.25l-2.14 6.096-1.826-6.096h-1.398z" style="font-style:normal;font-weight:400;font-size:15.16445827px;line-height:125%;font-family:&quot;Bitstream Vera Sans&quot;;fill:#646464;fill-opacity:1;stroke:none;stroke-width:1px;stroke-linecap:butt;stroke-linejoin:miter;stroke-opacity:1" transform="translate(-260.714 -252.848)"/><path d="M381.321 335.579h2.988v-6.183h2.68c3.632 0 6.414-1.726 6.414-5.461 0-3.916-2.73-5.204-6.415-5.204h-5.667zm2.988-8.579v-5.873h2.448c2.447 0 3.71.695 3.71 2.808 0 2.06-1.212 3.065-3.71 3.065zm10.503 5.178c0 2.216 1.546 3.71 3.761 3.71 1.494 0 2.782-.747 3.916-1.7h.077l.232 1.39h2.421v-7.496c0-3.53-1.545-5.461-4.714-5.461-2.01 0-3.787.773-5.178 1.648l1.082 1.984c1.108-.67 2.293-1.236 3.555-1.236 1.7 0 2.267 1.133 2.293 2.473-5.178.566-7.445 1.983-7.445 4.688m2.885-.232c0-1.262 1.134-2.164 4.56-2.602v2.834c-.928.876-1.726 1.391-2.757 1.391-1.056 0-1.803-.49-1.803-1.623m10.316-2.679c0 4.2 2.653 6.62 6.105 6.62 1.443 0 2.963-.566 4.148-1.622l-1.237-1.88c-.695.566-1.571 1.081-2.602 1.081-1.983 0-3.374-1.674-3.374-4.199 0-2.55 1.416-4.225 3.452-4.225.798 0 1.468.335 2.138.928l1.417-1.88c-.85-.825-2.087-1.47-3.71-1.47-3.375 0-6.337 2.422-6.337 6.647m12.749 6.312h2.91v-3.22l1.984-2.268 3.246 5.488h3.22l-4.765-7.497 4.328-5.152h-3.246l-4.689 5.822h-.077v-11.36h-2.911zm12.641-3.401c0 2.216 1.546 3.71 3.761 3.71 1.495 0 2.783-.747 3.916-1.7h.077l.232 1.39h2.422v-7.496c0-3.53-1.546-5.461-4.715-5.461-2.009 0-3.786.773-5.178 1.648l1.082 1.984c1.108-.67 2.293-1.236 3.555-1.236 1.7 0 2.267 1.133 2.293 2.473-5.178.566-7.445 1.983-7.445 4.688m2.886-.232c0-1.262 1.133-2.164 4.56-2.602v2.834c-.928.876-1.727 1.391-2.757 1.391-1.056 0-1.803-.49-1.803-1.623m12.763 5.487c0-.592.309-1.159.979-1.674.489.129 1.03.18 1.725.18h1.726c1.443 0 2.242.284 2.242 1.263 0 1.082-1.391 2.035-3.427 2.035-2.009 0-3.245-.67-3.245-1.804m-2.474.438c0 2.216 2.242 3.298 5.256 3.298 4.122 0 6.75-1.958 6.75-4.457 0-2.19-1.598-3.117-4.638-3.117h-2.241c-1.546 0-2.06-.438-2.06-1.16 0-.566.231-.875.617-1.21a4.7 4.7 0 0 0 1.726.335c2.68 0 4.792-1.494 4.792-4.302 0-.876-.31-1.649-.721-2.138h2.318v-2.19h-4.534a5.7 5.7 0 0 0-1.855-.31c-2.653 0-4.997 1.624-4.997 4.535 0 1.494.798 2.705 1.648 3.349v.103c-.72.515-1.39 1.365-1.39 2.344 0 1.03.489 1.7 1.133 2.112v.103c-1.16.722-1.804 1.65-1.804 2.705m5.41-8.166c-1.236 0-2.215-.927-2.215-2.55 0-1.597.979-2.5 2.215-2.5 1.237 0 2.19.928 2.19 2.5 0 1.623-.979 2.55-2.19 2.55m7.597-.438c0 4.173 2.731 6.62 6.235 6.62 1.597 0 3.117-.566 4.328-1.365l-1.005-1.854c-.927.592-1.855.927-2.937.927-2.035 0-3.478-1.288-3.735-3.58h8.037c.077-.31.13-.825.13-1.392 0-3.53-1.804-6.002-5.23-6.002-2.963 0-5.823 2.524-5.823 6.646m2.86-1.133c.258-2.113 1.546-3.22 3.04-3.22 1.726 0 2.576 1.21 2.576 3.22zm-81.124 33.721h2.988v-16.848h-2.988zm6.988 0h2.962v-8.836c1.056-1.03 1.778-1.572 2.885-1.572 1.392 0 1.984.773 1.984 2.86v7.548h2.963v-7.935c0-3.194-1.185-5.023-3.89-5.023-1.726 0-3.014.901-4.148 2.01h-.103l-.206-1.701h-2.447zm13.667-6.312c0 4.173 2.035 6.62 5.204 6.62 1.365 0 2.653-.746 3.58-1.674h.104l.206 1.366h2.447v-18.188h-2.962v4.586l.103 2.035c-.98-.85-1.88-1.391-3.323-1.391-2.757 0-5.359 2.524-5.359 6.646m3.066-.026c0-2.653 1.314-4.173 2.937-4.173.85 0 1.7.283 2.576 1.056v5.9c-.85.979-1.675 1.416-2.654 1.416-1.829 0-2.86-1.468-2.86-4.199m11.425.026c0 4.173 2.73 6.62 6.234 6.62 1.597 0 3.117-.566 4.328-1.365l-1.005-1.854c-.927.592-1.855.927-2.937.927-2.035 0-3.477-1.288-3.735-3.58h8.037c.078-.31.13-.825.13-1.392 0-3.53-1.804-6.002-5.23-6.002-2.963 0-5.822 2.524-5.822 6.646m2.86-1.133c.257-2.113 1.545-3.22 3.039-3.22 1.726 0 2.576 1.21 2.576 3.22zm9.224 7.445h3.091l1.34-2.5c.36-.772.747-1.52 1.108-2.24h.103c.438.72.876 1.494 1.288 2.24l1.546 2.5h3.194l-4.019-6.26 3.736-6.39h-3.066l-1.21 2.397c-.31.695-.67 1.442-.98 2.138h-.103a87 87 0 0 1-1.16-2.138l-1.416-2.396h-3.194l3.76 6.054z" style="font-style:normal;font-variant:normal;font-weight:600;font-stretch:normal;font-size:medium;line-height:125%;font-family:&quot;Source Sans Pro&quot;;-inkscape-font-specification:&quot;Source Sans Pro Semi-Bold&quot;;letter-spacing:0;word-spacing:0;fill:#646464;fill-opacity:1;stroke:none;stroke-width:1px;stroke-linecap:butt;stroke-linejoin:miter;stroke-opacity:1" transform="translate(-260.714 -252.848)"/></svg>